<svg xmlns="http://www.w3.org/2000/svg" height="575pt" version="1.1" viewBox="0 -105 575.95925 575" width="575pt">
<g id="surface1">
<path d="M 566.398438 173.285156 C 566.398438 167.984375 562.101562 163.6875 556.800781 163.6875 L 508.800781 163.6875 L 508.800781 115.6875 C 508.800781 99.78125 495.90625 86.886719 480 86.886719 L 307.199219 86.886719 C 291.292969 86.886719 278.398438 99.78125 278.398438 115.6875 L 278.398438 134.886719 C 278.398438 165.261719 297.234375 173.285156 307.199219 173.285156 L 312 173.285156 C 330.554688 173.285156 345.601562 188.328125 345.601562 206.886719 C 345.601562 225.445312 330.558594 240.488281 312 240.488281 L 212.738281 240.488281 C 209.300781 240.492188 206.121094 238.664062 204.402344 235.6875 L 173.089844 180.84375 L 182.34375 97.542969 C 182.382812 97.191406 182.402344 96.839844 182.402344 96.488281 C 183.101562 81.015625 177.328125 65.949219 166.464844 54.910156 C 173.074219 51.589844 178.148438 45.851562 180.636719 38.886719 L 211.203125 38.886719 L 211.203125 19.6875 L 180.636719 19.6875 C 176.582031 8.222656 165.761719 0.539062 153.601562 0.488281 L 105.601562 0.488281 C 100.296875 0.484375 96 4.78125 95.996094 10.082031 C 95.996094 11.574219 96.34375 13.042969 97.007812 14.378906 L 116.207031 52.777344 C 117.613281 55.507812 120.238281 57.402344 123.273438 57.875 L 109.835938 146.867188 C 107.953125 158.179688 99.539062 167.296875 88.417969 170.078125 L 74.4375 173.574219 C 70.179688 174.65625 67.199219 178.492188 67.199219 182.886719 L 67.199219 202.085938 L 57.601562 202.085938 C 25.800781 202.117188 0.03125 227.886719 0 259.6875 C 0 264.988281 4.296875 269.285156 9.601562 269.285156 L 16.15625 269.285156 C 0.164062 302.777344 14.355469 342.890625 47.847656 358.882812 C 81.339844 374.871094 121.453125 360.683594 137.441406 327.191406 C 141.78125 318.101562 144.023438 308.15625 144 298.085938 L 165.972656 298.085938 C 174.925781 321.222656 197.171875 336.476562 221.980469 336.484375 L 325.21875 336.484375 C 350.023438 336.476562 372.273438 321.21875 381.226562 298.085938 L 393.601562 298.085938 C 393.601562 335.199219 423.6875 365.285156 460.800781 365.285156 C 497.914062 365.285156 528 335.199219 528 298.085938 L 566.398438 298.085938 C 571.699219 298.085938 575.996094 293.789062 575.996094 288.484375 L 575.996094 265.601562 C 576.03125 251.125 572.746094 236.835938 566.398438 223.828125 Z M 547.199219 182.886719 L 547.199219 196.210938 C 542.699219 191.429688 537.859375 186.976562 532.722656 182.886719 Z M 297.601562 115.6875 C 297.601562 110.382812 301.898438 106.085938 307.199219 106.085938 L 480 106.085938 C 485.300781 106.085938 489.597656 110.386719 489.597656 115.6875 L 489.597656 125.285156 L 297.601562 125.285156 Z M 121.132812 19.6875 L 153.597656 19.6875 C 158.902344 19.6875 163.199219 23.984375 163.199219 29.285156 C 163.199219 34.589844 158.902344 38.886719 153.597656 38.886719 L 130.730469 38.886719 Z M 76.800781 346.085938 C 50.332031 346.128906 28.84375 324.707031 28.800781 298.238281 C 28.78125 287.792969 32.179688 277.625 38.476562 269.285156 L 52.800781 269.285156 C 57.574219 269.351562 62.328125 269.96875 66.960938 271.128906 C 52.011719 276.5625 44.296875 293.085938 49.734375 308.035156 C 55.167969 322.984375 71.691406 330.695312 86.640625 325.261719 C 98.0625 321.109375 105.644531 310.238281 105.597656 298.085938 C 105.558594 295.363281 105.128906 292.660156 104.320312 290.058594 C 105.730469 290.699219 107.164062 291.320312 108.625 291.921875 C 109.84375 292.402344 111.082031 292.882812 112.320312 293.253906 C 114.488281 293.992188 116.691406 294.632812 118.925781 295.175781 C 120.183594 295.492188 121.4375 295.808594 122.765625 296.070312 C 123.457031 296.210938 124.117188 296.433594 124.808594 296.546875 C 124.808594 297.058594 124.808594 297.507812 124.808594 298.054688 C 124.792969 324.570312 103.3125 346.058594 76.800781 346.085938 Z M 67.199219 298.085938 C 67.199219 292.785156 71.496094 288.488281 76.800781 288.488281 C 82.101562 288.488281 86.398438 292.785156 86.398438 298.085938 C 86.398438 303.390625 82.101562 307.6875 76.800781 307.6875 C 71.496094 307.6875 67.199219 303.386719 67.199219 298.085938 Z M 144 278.886719 L 139.199219 278.886719 C 138.265625 278.867188 137.332031 278.792969 136.40625 278.664062 L 134.226562 278.453125 C 122.484375 277.589844 111.226562 273.414062 101.761719 266.40625 C 87.617188 255.851562 70.449219 250.128906 52.800781 250.085938 L 20.417969 250.085938 C 24.816406 233.144531 40.097656 221.308594 57.601562 221.285156 L 96 221.285156 C 122.496094 221.320312 143.96875 242.789062 144 269.285156 Z M 325.21875 317.285156 L 221.980469 317.285156 C 207.855469 317.296875 194.71875 310.042969 187.199219 298.085938 L 360 298.085938 C 352.484375 310.046875 339.34375 317.296875 325.21875 317.285156 Z M 460.800781 346.085938 C 434.300781 346.054688 412.832031 324.582031 412.800781 298.085938 L 432 298.085938 C 432 313.992188 444.894531 326.886719 460.800781 326.886719 C 476.707031 326.886719 489.597656 313.992188 489.597656 298.085938 L 508.800781 298.085938 C 508.765625 324.582031 487.296875 346.054688 460.800781 346.085938 Z M 451.199219 298.085938 L 470.398438 298.085938 C 470.398438 303.390625 466.101562 307.6875 460.800781 307.6875 C 455.496094 307.6875 451.199219 303.386719 451.199219 298.085938 Z M 556.800781 278.886719 L 163.199219 278.886719 L 163.199219 269.285156 C 163.15625 232.191406 133.097656 202.128906 96 202.085938 L 86.402344 202.085938 L 86.402344 190.382812 L 93.121094 188.703125 C 111.71875 184.058594 125.769531 168.796875 128.863281 149.882812 L 142.214844 61.246094 C 155.984375 67.0625 164.449219 81.074219 163.199219 95.96875 L 153.660156 181.832031 C 153.429688 183.851562 153.851562 185.890625 154.867188 187.648438 L 187.738281 245.179688 C 192.878906 254.140625 202.410156 259.671875 212.738281 259.6875 L 312 259.6875 C 341.160156 259.6875 364.800781 236.046875 364.800781 206.886719 C 364.800781 177.726562 341.160156 154.089844 312 154.089844 L 307.46875 154.089844 C 306.203125 154.011719 300.960938 153.128906 298.667969 144.488281 L 489.601562 144.488281 L 489.601562 163.6875 L 393.601562 163.6875 L 393.601562 182.890625 L 497.050781 182.890625 C 506.476562 187.476562 556.800781 214.328125 556.800781 265.601562 Z M 556.800781 278.886719 " style=" stroke:none;fill-rule:nonzero;fill:rgb(0%,0%,0%);fill-opacity:1;" />
<path d="M 393.601562 202.085938 L 451.199219 202.085938 L 451.199219 221.285156 L 393.601562 221.285156 Z M 393.601562 202.085938 " style=" stroke:none;fill-rule:nonzero;fill:rgb(0%,0%,0%);fill-opacity:1;" />
<path d="M 393.601562 240.484375 L 451.199219 240.484375 L 451.199219 259.6875 L 393.601562 259.6875 Z M 393.601562 240.484375 " style=" stroke:none;fill-rule:nonzero;fill:rgb(0%,0%,0%);fill-opacity:1;" />
</g>
</svg>